<?xml version="1.0" encoding="UTF-8"?>
<!DOCTYPE svg PUBLIC "-//W3C//DTD SVG 1.0//EN" "http://www.w3.org/TR/2001/REC-SVG-20010904/DTD/svg10.dtd">
<!-- Creator: CorelDRAW 2017 -->
<svg xmlns="http://www.w3.org/2000/svg" xml:space="preserve" width="189.48mm" height="244.126mm" version="1.0" style="shape-rendering:geometricPrecision; text-rendering:geometricPrecision; image-rendering:optimizeQuality; fill-rule:evenodd; clip-rule:evenodd"
viewBox="0 0 933.64 1202.9"
 xmlns:xlink="http://www.w3.org/1999/xlink"
 xmlns:rdf="http://www.w3.org/1999/02/22-rdf-syntax-ns#"
 xmlns:cc="http://creativecommons.org/ns#"
 xmlns:dc="http://purl.org/dc/elements/1.1/">
 <defs>
  <style type="text/css">
   <![CDATA[
    .str0 {stroke:black;stroke-width:31.43;stroke-miterlimit:22.9256}
    .str1 {stroke:black;stroke-width:94.3;stroke-miterlimit:22.9256}
    .fil2 {fill:none}
    .fil0 {fill:#F7931A}
    .fil1 {fill:white}
   ]]>
  </style>
 </defs>
 <g id="Layer_x0020_1">
  <metadata id="CorelCorpID_0Corel-Layer"/>
  <path class="fil0 str0" d="M75.27 495.69l91.29 0.27c6.52,-2.02 31.78,-106.76 35.27,-120.11l32.45 -122.35 58.99 47.59c19.55,16.8 39.15,31.71 58.55,48.31 20.1,17.2 38.31,32.78 58.24,48.52 11.72,9.26 50.6,43.41 59.72,47.48 8.2,-9.32 18.53,-16.12 28.04,-24.14 11.04,-9.31 17.3,-14.76 28.27,-23.99l175.01 -143.4 65.09 241.97 93.2 0.05 -81.12 -304.61c38.17,-10.14 66.3,-44.93 66.3,-86.29 -0,-49.31 -39.97,-89.28 -89.28,-89.28 -49.31,-0 -89.28,39.97 -89.28,89.28 0,20.85 7.15,40.03 19.13,55.23l-2.04 1.69 -142.84 114.35c-10.4,8.43 -65.47,54.13 -73.11,57.32l-215.6 -172.31c12.23,-15.28 19.54,-34.65 19.54,-55.74 -0,-49.31 -39.97,-89.28 -89.28,-89.28 -49.31,0 -89.28,39.97 -89.28,89.28 0,40.76 27.32,75.15 64.65,85.84 -30.45,109 -78.63,285.28 -81.91,304.31zm391.89 -391.86c10.27,-0 18.6,8.33 18.6,18.6 -0,5.67 -2.54,10.75 -6.54,14.16 19.11,24.28 53.38,71.11 54.76,74.09 -3.55,3.33 -5.17,3.88 -8.68,6.77l-57.79 46.11c-11.04,-8.33 -22.3,-18.02 -33.13,-26.92 -7.15,-5.88 -27.85,-21.38 -32.26,-26.76l49.4 -66.23c1.54,-2.1 3.11,-4.16 4.67,-6.2 -4.62,-3.38 -7.63,-8.85 -7.63,-15.02 -0,-10.27 8.33,-18.6 18.6,-18.6zm-237.63 391.88l206.48 -0.38 -83.57 -70.28c-16.85,-13.32 -74.58,-63.24 -85.76,-69.66l-37.15 140.32zm270.23 0.1c31.02,0.46 188.64,1.38 206.31,-0.85l-37.26 -139.03c-8.53,3.64 -113.01,92.44 -126.43,103.33 -11.22,9.1 -34.68,26.4 -42.61,36.54z"/>
  <g id="_2236312965680">
   <g>
    <path class="fil0" d="M861.61 842.31c-54.95,220.43 -278.21,354.58 -498.67,299.61 -220.36,-54.95 -354.51,-278.23 -299.53,-498.64 54.93,-220.45 278.19,-354.61 498.57,-299.66 220.44,54.95 354.58,278.25 299.62,498.69l0 -0z"/>
    <path class="fil1" d="M643.92 684.16c8.19,-54.75 -33.49,-84.18 -90.49,-103.81l18.49 -74.16 -45.15 -11.25 -18 72.21c-11.87,-2.96 -24.06,-5.75 -36.17,-8.51l18.13 -72.69 -45.12 -11.25 -18.5 74.14c-9.82,-2.24 -19.47,-4.45 -28.83,-6.77l0.05 -0.23 -62.26 -15.55 -12.01 48.22c0,0 33.49,7.68 32.79,8.15 18.28,4.56 21.59,16.66 21.04,26.26l-21.06 84.49c1.26,0.32 2.89,0.78 4.69,1.51 -1.51,-0.37 -3.11,-0.78 -4.77,-1.18l-29.52 118.36c-2.24,5.55 -7.91,13.89 -20.69,10.73 0.45,0.66 -32.81,-8.19 -32.81,-8.19l-22.41 51.68 58.75 14.65c10.93,2.74 21.64,5.61 32.19,8.31l-18.68 75.02 45.09 11.25 18.5 -74.22c12.32,3.34 24.27,6.43 35.98,9.34l-18.44 73.87 45.15 11.25 18.68 -74.87c76.98,14.57 134.87,8.69 159.23,-60.94 19.63,-56.06 -0.98,-88.4 -41.48,-109.49 29.5,-6.8 51.72,-26.2 57.64,-66.28l-0.01 -0.01zm-103.15 144.64c-13.95,56.06 -108.34,25.76 -138.95,18.16l24.79 -99.38c30.6,7.64 128.74,22.76 114.16,81.23zm13.96 -145.45c-12.73,50.99 -91.29,25.09 -116.78,18.73l22.48 -90.13c25.48,6.35 107.56,18.21 94.3,71.4l-0 0z"/>
   </g>
  </g>
  <circle class="fil2 str1" transform="matrix(2.06653 0.915853 -0.915853 2.06653 466.818 736.079)" r="185.65"/>
 </g>
</svg>
